<?xml version="1.0" encoding="UTF-8"?>
<svg width="32" height="32" viewBox="0 0 32 32" fill="none" xmlns="http://www.w3.org/2000/svg">
  <defs>
    <linearGradient id="gradient" x1="0%" y1="0%" x2="100%" y2="0%">
      <stop offset="0%" style="stop-color:#9333EA"/>
      <stop offset="100%" style="stop-color:#3B82F6"/>
    </linearGradient>
  </defs>
  <rect width="32" height="32" rx="6" fill="url(#gradient)"/>
  <path d="M16 8C12.6863 8 10 10.6863 10 14C10 17.3137 12.6863 20 16 20C19.3137 20 22 17.3137 22 14C22 10.6863 19.3137 8 16 8ZM16 18C13.7909 18 12 16.2091 12 14C12 11.7909 13.7909 10 16 10C18.2091 10 20 11.7909 20 14C20 16.2091 18.2091 18 16 18Z" fill="white"/>
  <path d="M16 12C15.4477 12 15 12.4477 15 13V15C15 15.5523 15.4477 16 16 16C16.5523 16 17 15.5523 17 15V13C17 12.4477 16.5523 12 16 12Z" fill="white"/>
  <path d="M16 20L16 24" stroke="white" stroke-width="2" stroke-linecap="round"/>
  <path d="M12 22L20 22" stroke="white" stroke-width="2" stroke-linecap="round"/>
</svg> 